<mxfile host="app.diagrams.net" modified="2022-02-28T00:38:20.271Z" agent="5.0 (Windows NT 10.0; Win64; x64) AppleWebKit/537.36 (KHTML, like Gecko) Chrome/98.0.4758.102 Safari/537.36" etag="DsG3nvuSAZkPBc4g6Ym5" version="16.6.1" type="github">
  <diagram name="Page-1" id="58cdce13-f638-feb5-8d6f-7d28b1aa9fa0">
    <mxGraphModel dx="822" dy="885" grid="1" gridSize="10" guides="1" tooltips="1" connect="1" arrows="1" fold="1" page="1" pageScale="1" pageWidth="1100" pageHeight="850" background="none" math="0" shadow="0">
      <root>
        <mxCell id="0" />
        <mxCell id="1" parent="0" />
        <mxCell id="382b91b5511bd0f7-1" value="" style="ellipse;html=1;shape=startState;fillColor=#000000;strokeColor=#ff0000;rounded=1;shadow=0;comic=0;labelBackgroundColor=none;fontFamily=Verdana;fontSize=12;fontColor=#000000;align=center;direction=south;" parent="1" vertex="1">
          <mxGeometry x="285" y="40" width="30" height="30" as="geometry" />
        </mxCell>
        <mxCell id="382b91b5511bd0f7-5" value="Plow Snow" style="rounded=1;whiteSpace=wrap;html=1;arcSize=24;fillColor=#ffffc0;strokeColor=#ff0000;shadow=0;comic=0;labelBackgroundColor=none;fontFamily=Verdana;fontSize=12;fontColor=#000000;align=center;" parent="1" vertex="1">
          <mxGeometry x="240" y="340" width="120" height="60" as="geometry" />
        </mxCell>
        <mxCell id="382b91b5511bd0f7-6" value="Initialize" style="rounded=1;whiteSpace=wrap;html=1;arcSize=24;fillColor=#ffffc0;strokeColor=#ff0000;shadow=0;comic=0;labelBackgroundColor=none;fontFamily=Verdana;fontSize=12;fontColor=#000000;align=center;" parent="1" vertex="1">
          <mxGeometry x="240" y="120" width="120" height="60" as="geometry" />
        </mxCell>
        <mxCell id="382b91b5511bd0f7-7" value="Move Robot/Initiate Plow" style="rounded=1;whiteSpace=wrap;html=1;arcSize=24;fillColor=#ffffc0;strokeColor=#ff0000;shadow=0;comic=0;labelBackgroundColor=none;fontFamily=Verdana;fontSize=12;fontColor=#000000;align=center;" parent="1" vertex="1">
          <mxGeometry x="240" y="230" width="120" height="60" as="geometry" />
        </mxCell>
        <mxCell id="2a3bc250acf0617d-9" style="edgeStyle=orthogonalEdgeStyle;html=1;labelBackgroundColor=none;endArrow=open;endSize=8;strokeColor=#ff0000;fontFamily=Verdana;fontSize=12;align=left;" parent="1" source="382b91b5511bd0f7-1" target="382b91b5511bd0f7-6" edge="1">
          <mxGeometry relative="1" as="geometry" />
        </mxCell>
        <mxCell id="2a3bc250acf0617d-10" style="edgeStyle=orthogonalEdgeStyle;html=1;labelBackgroundColor=none;endArrow=open;endSize=8;strokeColor=#ff0000;fontFamily=Verdana;fontSize=12;align=left;entryX=0.5;entryY=0;entryDx=0;entryDy=0;" parent="1" source="382b91b5511bd0f7-6" target="382b91b5511bd0f7-7" edge="1">
          <mxGeometry relative="1" as="geometry">
            <Array as="points">
              <mxPoint x="300" y="220" />
              <mxPoint x="300" y="220" />
            </Array>
          </mxGeometry>
        </mxCell>
        <mxCell id="2a3bc250acf0617d-11" style="edgeStyle=orthogonalEdgeStyle;html=1;entryX=0.5;entryY=0;labelBackgroundColor=none;endArrow=open;endSize=8;strokeColor=#ff0000;fontFamily=Verdana;fontSize=12;align=left;exitX=0.5;exitY=1;entryDx=0;entryDy=0;" parent="1" source="382b91b5511bd0f7-7" target="382b91b5511bd0f7-5" edge="1">
          <mxGeometry relative="1" as="geometry">
            <mxPoint x="520" y="300" as="sourcePoint" />
            <Array as="points">
              <mxPoint x="300" y="300" />
              <mxPoint x="300" y="300" />
            </Array>
          </mxGeometry>
        </mxCell>
        <mxCell id="wYw4_4yCOaTGUMIue8w5-1" value="" style="ellipse;html=1;shape=endState;fillColor=#000000;strokeColor=#ff0000;rounded=1;shadow=0;comic=0;labelBackgroundColor=none;fontFamily=Verdana;fontSize=12;fontColor=#000000;align=center;" vertex="1" parent="1">
          <mxGeometry x="555" y="260" width="30" height="30" as="geometry" />
        </mxCell>
        <mxCell id="wYw4_4yCOaTGUMIue8w5-3" value="Event Triggered" style="rounded=1;whiteSpace=wrap;html=1;arcSize=24;fillColor=#ffffc0;strokeColor=#ff0000;shadow=0;comic=0;labelBackgroundColor=none;fontFamily=Verdana;fontSize=12;fontColor=#000000;align=center;" vertex="1" parent="1">
          <mxGeometry x="240" y="450" width="120" height="60" as="geometry" />
        </mxCell>
        <mxCell id="wYw4_4yCOaTGUMIue8w5-5" style="edgeStyle=orthogonalEdgeStyle;html=1;entryX=0.5;entryY=0;labelBackgroundColor=none;endArrow=open;endSize=8;strokeColor=#ff0000;fontFamily=Verdana;fontSize=12;align=left;exitX=0.5;exitY=1;entryDx=0;entryDy=0;exitDx=0;exitDy=0;" edge="1" parent="1" source="382b91b5511bd0f7-5" target="wYw4_4yCOaTGUMIue8w5-3">
          <mxGeometry relative="1" as="geometry">
            <mxPoint x="310" y="300" as="sourcePoint" />
            <Array as="points">
              <mxPoint x="300" y="430" />
              <mxPoint x="300" y="430" />
            </Array>
            <mxPoint x="310" y="350" as="targetPoint" />
          </mxGeometry>
        </mxCell>
        <mxCell id="wYw4_4yCOaTGUMIue8w5-6" value="Rotate Robot" style="rounded=1;whiteSpace=wrap;html=1;arcSize=24;fillColor=#ffffc0;strokeColor=#ff0000;shadow=0;comic=0;labelBackgroundColor=none;fontFamily=Verdana;fontSize=12;fontColor=#000000;align=center;" vertex="1" parent="1">
          <mxGeometry x="510" y="450" width="120" height="60" as="geometry" />
        </mxCell>
        <mxCell id="wYw4_4yCOaTGUMIue8w5-7" style="edgeStyle=orthogonalEdgeStyle;html=1;entryX=0;entryY=0.5;labelBackgroundColor=none;endArrow=open;endSize=8;strokeColor=#ff0000;fontFamily=Verdana;fontSize=12;align=left;entryDx=0;entryDy=0;" edge="1" parent="1" target="wYw4_4yCOaTGUMIue8w5-6">
          <mxGeometry relative="1" as="geometry">
            <mxPoint x="360" y="480" as="sourcePoint" />
            <Array as="points">
              <mxPoint x="360" y="480" />
              <mxPoint x="360" y="480" />
            </Array>
            <mxPoint x="310" y="460" as="targetPoint" />
          </mxGeometry>
        </mxCell>
        <mxCell id="wYw4_4yCOaTGUMIue8w5-8" style="edgeStyle=orthogonalEdgeStyle;html=1;labelBackgroundColor=none;endArrow=open;endSize=8;strokeColor=#ff0000;fontFamily=Verdana;fontSize=12;align=left;entryX=0.75;entryY=1;entryDx=0;entryDy=0;exitX=0.096;exitY=-0.015;exitDx=0;exitDy=0;exitPerimeter=0;" edge="1" parent="1" source="wYw4_4yCOaTGUMIue8w5-6" target="382b91b5511bd0f7-7">
          <mxGeometry relative="1" as="geometry">
            <Array as="points">
              <mxPoint x="390" y="449" />
              <mxPoint x="390" y="320" />
              <mxPoint x="330" y="320" />
            </Array>
            <mxPoint x="310" y="190" as="sourcePoint" />
            <mxPoint x="310" y="240" as="targetPoint" />
          </mxGeometry>
        </mxCell>
        <mxCell id="wYw4_4yCOaTGUMIue8w5-9" value="Robot in Operation" style="text;strokeColor=none;fillColor=none;align=left;verticalAlign=top;spacingLeft=4;spacingRight=4;overflow=hidden;rotatable=0;points=[[0,0.5],[1,0.5]];portConstraint=eastwest;" vertex="1" parent="1">
          <mxGeometry x="190" y="190" width="110" height="26" as="geometry" />
        </mxCell>
        <mxCell id="wYw4_4yCOaTGUMIue8w5-10" value="Simulation Started" style="text;strokeColor=none;fillColor=none;align=left;verticalAlign=top;spacingLeft=4;spacingRight=4;overflow=hidden;rotatable=0;points=[[0,0.5],[1,0.5]];portConstraint=eastwest;" vertex="1" parent="1">
          <mxGeometry x="190" y="70" width="110" height="26" as="geometry" />
        </mxCell>
        <mxCell id="wYw4_4yCOaTGUMIue8w5-12" value="Snow Removal Started" style="text;strokeColor=none;fillColor=none;align=left;verticalAlign=top;spacingLeft=4;spacingRight=4;overflow=hidden;rotatable=0;points=[[0,0.5],[1,0.5]];portConstraint=eastwest;" vertex="1" parent="1">
          <mxGeometry x="160" y="300" width="140" height="26" as="geometry" />
        </mxCell>
        <mxCell id="wYw4_4yCOaTGUMIue8w5-13" value="Sensor Detect Obstruction" style="text;strokeColor=none;fillColor=none;align=left;verticalAlign=top;spacingLeft=4;spacingRight=4;overflow=hidden;rotatable=0;points=[[0,0.5],[1,0.5]];portConstraint=eastwest;" vertex="1" parent="1">
          <mxGeometry x="150" y="412" width="150" height="26" as="geometry" />
        </mxCell>
        <mxCell id="wYw4_4yCOaTGUMIue8w5-14" value="Change Robot &#xa;Directional &#xa;Heading" style="text;strokeColor=none;fillColor=none;align=left;verticalAlign=top;spacingLeft=4;spacingRight=4;overflow=hidden;rotatable=0;points=[[0,0.5],[1,0.5]];portConstraint=eastwest;" vertex="1" parent="1">
          <mxGeometry x="380" y="484" width="100" height="56" as="geometry" />
        </mxCell>
        <mxCell id="wYw4_4yCOaTGUMIue8w5-16" value="Return of Inital State" style="text;strokeColor=none;fillColor=none;align=left;verticalAlign=top;spacingLeft=4;spacingRight=4;overflow=hidden;rotatable=0;points=[[0,0.5],[1,0.5]];portConstraint=eastwest;" vertex="1" parent="1">
          <mxGeometry x="390" y="424" width="120" height="26" as="geometry" />
        </mxCell>
        <mxCell id="wYw4_4yCOaTGUMIue8w5-18" value="idle" style="rounded=1;whiteSpace=wrap;html=1;arcSize=24;fillColor=#ffffc0;strokeColor=#ff0000;shadow=0;comic=0;labelBackgroundColor=none;fontFamily=Verdana;fontSize=12;fontColor=#000000;align=center;" vertex="1" parent="1">
          <mxGeometry x="510" y="340" width="120" height="60" as="geometry" />
        </mxCell>
        <mxCell id="wYw4_4yCOaTGUMIue8w5-19" style="edgeStyle=orthogonalEdgeStyle;html=1;entryX=0.5;entryY=1;labelBackgroundColor=none;endArrow=open;endSize=8;strokeColor=#ff0000;fontFamily=Verdana;fontSize=12;align=left;entryDx=0;entryDy=0;exitX=0.5;exitY=0;exitDx=0;exitDy=0;" edge="1" parent="1" source="wYw4_4yCOaTGUMIue8w5-6" target="wYw4_4yCOaTGUMIue8w5-18">
          <mxGeometry relative="1" as="geometry">
            <mxPoint x="420" y="424.40999999999997" as="sourcePoint" />
            <Array as="points">
              <mxPoint x="570" y="430" />
              <mxPoint x="570" y="430" />
            </Array>
            <mxPoint x="570" y="424.40999999999997" as="targetPoint" />
          </mxGeometry>
        </mxCell>
        <mxCell id="wYw4_4yCOaTGUMIue8w5-20" value="Robot Task Completed" style="text;strokeColor=none;fillColor=none;align=left;verticalAlign=top;spacingLeft=4;spacingRight=4;overflow=hidden;rotatable=0;points=[[0,0.5],[1,0.5]];portConstraint=eastwest;" vertex="1" parent="1">
          <mxGeometry x="440" y="400" width="130" height="26" as="geometry" />
        </mxCell>
        <mxCell id="wYw4_4yCOaTGUMIue8w5-22" style="edgeStyle=orthogonalEdgeStyle;html=1;entryX=0.5;entryY=1;labelBackgroundColor=none;endArrow=open;endSize=8;strokeColor=#ff0000;fontFamily=Verdana;fontSize=12;align=left;entryDx=0;entryDy=0;exitX=0.5;exitY=0;exitDx=0;exitDy=0;" edge="1" parent="1" source="wYw4_4yCOaTGUMIue8w5-18" target="wYw4_4yCOaTGUMIue8w5-1">
          <mxGeometry relative="1" as="geometry">
            <mxPoint x="580" y="460" as="sourcePoint" />
            <Array as="points">
              <mxPoint x="570" y="310" />
              <mxPoint x="570" y="310" />
            </Array>
            <mxPoint x="580" y="410" as="targetPoint" />
          </mxGeometry>
        </mxCell>
        <mxCell id="wYw4_4yCOaTGUMIue8w5-23" value="Successful Completion" style="text;strokeColor=none;fillColor=none;align=left;verticalAlign=top;spacingLeft=4;spacingRight=4;overflow=hidden;rotatable=0;points=[[0,0.5],[1,0.5]];portConstraint=eastwest;" vertex="1" parent="1">
          <mxGeometry x="430" y="300" width="140" height="26" as="geometry" />
        </mxCell>
      </root>
    </mxGraphModel>
  </diagram>
</mxfile>
